<svg width="16" height="16" viewBox="0 0 16 16" fill="none" xmlns="http://www.w3.org/2000/svg">
<path d="M13.6603 2.34173C10.5407 -0.777862 5.46315 -0.777862 2.34355 2.34173C0.832414 3.85347 0 5.86296 0 8.00011C0 10.1373 0.832414 12.1467 2.34355 13.6579C3.90366 15.218 5.95281 15.9977 8.00192 15.9977C10.051 15.9977 12.1002 15.218 13.6603 13.6579C16.7799 10.5383 16.7799 5.46192 13.6603 2.34173ZM12.7839 12.7814C10.1471 15.4182 5.85671 15.4182 3.21997 12.7814C1.94314 11.5046 1.23964 9.80628 1.23964 8.00011C1.23964 6.19393 1.94314 4.4956 3.21997 3.21815C5.85671 0.581403 10.1471 0.582028 12.7839 3.21815C15.42 5.8549 15.42 10.1453 12.7839 12.7814Z" fill="#2A9D8F"/>
<path d="M10.6726 9.71344L8.91791 7.9612L10.6726 6.20897C10.9144 5.96725 10.9144 5.5749 10.6733 5.33252C10.4309 5.08955 10.0386 5.09018 9.79624 5.3319L8.04028 7.08538L6.28433 5.3319C6.04198 5.09018 5.64963 5.08955 5.40729 5.33252C5.16557 5.57487 5.16557 5.96722 5.40791 6.20897L7.16265 7.9612L5.40791 9.71344C5.16557 9.95516 5.16557 10.3475 5.40729 10.5899C5.52816 10.7114 5.68745 10.7715 5.84614 10.7715C6.00482 10.7715 6.16348 10.7107 6.28436 10.5905L8.04031 8.83699L9.79627 10.5905C9.91714 10.7114 10.0758 10.7715 10.2345 10.7715C10.3932 10.7715 10.5525 10.7107 10.6733 10.5899C10.915 10.3475 10.915 9.95516 10.6726 9.71344Z" fill="#2A9D8F"/>
</svg>
