<svg width="16" height="16" viewBox="0 0 16 16" fill="none" xmlns="http://www.w3.org/2000/svg">
<g clip-path="url(#clip0)">
<path d="M10.2067 5.79682C9.99977 5.79682 9.83203 5.96456 9.83203 6.17153V13.2535C9.83203 13.4603 9.99977 13.6282 10.2067 13.6282C10.4137 13.6282 10.5814 13.4603 10.5814 13.2535V6.17153C10.5814 5.96456 10.4137 5.79682 10.2067 5.79682Z" fill="#FF3300"/>
<path d="M5.78535 5.79682C5.57838 5.79682 5.41064 5.96456 5.41064 6.17153V13.2535C5.41064 13.4603 5.57838 13.6282 5.78535 13.6282C5.99232 13.6282 6.16006 13.4603 6.16006 13.2535V6.17153C6.16006 5.96456 5.99232 5.79682 5.78535 5.79682Z" fill="#FF3300"/>
<path d="M2.56276 4.7633V13.9953C2.56276 14.5409 2.76285 15.0534 3.11238 15.421C3.4603 15.7898 3.94449 15.9991 4.45122 15.9999H11.5408C12.0477 15.9991 12.5318 15.7898 12.8796 15.421C13.2292 15.0534 13.4292 14.5409 13.4292 13.9953V4.7633C14.1241 4.57887 14.5743 3.90762 14.4813 3.19466C14.3883 2.48184 13.781 1.94861 13.062 1.94847H11.1435V1.48008C11.1457 1.0862 10.99 0.707985 10.7112 0.429737C10.4323 0.151635 10.0535 -0.0032243 9.65964 -4.17247e-06H6.33236C5.93848 -0.0032243 5.55968 0.151635 5.28084 0.429737C5.00201 0.707985 4.84627 1.0862 4.84847 1.48008V1.94847H2.93C2.21104 1.94861 1.60375 2.48184 1.51066 3.19466C1.41771 3.90762 1.86795 4.57887 2.56276 4.7633ZM11.5408 15.2505H4.45122C3.81056 15.2505 3.31217 14.7002 3.31217 13.9953V4.79623H12.6798V13.9953C12.6798 14.7002 12.1814 15.2505 11.5408 15.2505ZM5.59788 1.48008C5.59539 1.28497 5.67209 1.09718 5.81056 0.959448C5.94888 0.821714 6.13711 0.746041 6.33236 0.749408H9.65964C9.85489 0.746041 10.0431 0.821714 10.1814 0.959448C10.3199 1.09704 10.3966 1.28497 10.3941 1.48008V1.94847H5.59788V1.48008ZM2.93 2.69788H13.062C13.4345 2.69788 13.7365 2.99984 13.7365 3.37235C13.7365 3.74486 13.4345 4.04682 13.062 4.04682H2.93C2.55749 4.04682 2.25553 3.74486 2.25553 3.37235C2.25553 2.99984 2.55749 2.69788 2.93 2.69788Z" fill="#FF3300"/>
<path d="M7.99628 5.79682C7.78932 5.79682 7.62158 5.96456 7.62158 6.17153V13.2535C7.62158 13.4603 7.78932 13.6282 7.99628 13.6282C8.20325 13.6282 8.37098 13.4603 8.37098 13.2535V6.17153C8.37098 5.96456 8.20325 5.79682 7.99628 5.79682Z" fill="#FF3300"/>
</g>
<defs>
<clipPath id="clip0">
<rect width="16" height="16" fill="white"/>
</clipPath>
</defs>
</svg>
