<svg width="16" height="16" viewBox="0 0 16 16" fill="none" xmlns="http://www.w3.org/2000/svg">
<g clip-path="url(#clip0)">
<path d="M15.7345 0.0278135C15.663 0.00642413 15.5867 0.00702862 15.5156 0.0295805L15.5044 0.0184208L10.9699 1.42826C10.8099 1.49103 10.6595 1.57617 10.5235 1.68121L0.286345 11.9184C-0.0947576 12.2985 -0.0955481 12.9156 0.284578 13.2967C0.285183 13.2973 0.285741 13.2978 0.286345 13.2984L2.6894 15.7015C3.06952 16.0826 3.68661 16.0834 4.06771 15.7033C4.06831 15.7026 4.06887 15.7021 4.06948 15.7015L5.58347 14.1875L14.3178 5.46434C14.443 5.35656 14.552 5.23125 14.6414 5.09235L15.9843 0.490847C16.0432 0.294018 15.9314 0.0867273 15.7345 0.0278135ZM11.0406 2.20572C11.1303 2.11532 11.2763 2.11477 11.3667 2.20451C11.3671 2.20488 11.3675 2.2053 11.3679 2.20572L12.3165 3.15801L3.69005 11.7696L2.57408 10.6536L11.0406 2.20572ZM3.53009 15.1733C3.4383 15.2602 3.29453 15.2602 3.20274 15.1733L0.81457 12.7739C0.724177 12.6842 0.723665 12.5382 0.813361 12.4478C0.813733 12.4474 0.814152 12.447 0.81457 12.4466L2.06445 11.1967L3.42965 12.5619L4.79485 13.9271L3.53009 15.1733ZM13.7821 4.93612L5.31936 13.3989L4.20339 12.2829L12.8298 3.67135L13.7672 4.60877C13.8576 4.69851 13.8581 4.84452 13.7684 4.93491C13.7681 4.93533 13.7677 4.9357 13.7672 4.93612H13.7821ZM14.1839 3.95407L13.1088 2.87902L12.0858 1.85977L15.0618 0.926074L14.1839 3.95407Z" fill="white"/>
</g>
<defs>
<clipPath id="clip0">
<rect width="16" height="16" fill="white"/>
</clipPath>
</defs>
</svg>
