<svg width="30" height="30" viewBox="0 0 30 30" fill="none" xmlns="http://www.w3.org/2000/svg">
<g clip-path="url(#clip0)">
<path d="M14.9999 16.1488C14.1386 16.1488 13.4401 16.847 13.4401 17.7086C13.4401 18.2862 13.755 18.7893 14.2218 19.0591V20.7933H15.778V19.0591C16.2448 18.7894 16.5597 18.2862 16.5597 17.7086C16.5597 16.847 15.8613 16.1488 14.9999 16.1488Z" fill="#2A9D8F"/>
<path d="M15.0005 8.58505C13.6894 8.58505 12.623 9.65157 12.623 10.9626V13.4945H17.3779V10.9626C17.3778 9.65177 16.3113 8.58505 15.0005 8.58505Z" fill="#2A9D8F"/>
<path d="M14.9998 0.00100708C6.71571 0.00100708 0 6.71692 0 15.001C0 23.2848 6.71571 30.0009 14.9998 30.0009C23.2838 30.0009 30 23.2847 30 15.001C30 6.71692 23.2838 0.00100708 14.9998 0.00100708ZM19.6088 22.7131H10.3914C9.41796 22.7131 8.62874 21.9239 8.62874 20.9501V15.2582C8.62874 14.409 9.22945 13.6999 10.0291 13.5331V10.9634C10.0291 8.22244 12.2591 5.99221 15.0003 5.99221C17.7412 5.99221 19.9712 8.22224 19.9712 10.9634V13.5331C20.7705 13.7004 21.3713 14.409 21.3713 15.2582V20.9501H21.3715C21.3715 21.9238 20.5822 22.7131 19.6088 22.7131Z" fill="#2A9D8F"/>
</g>
<defs>
<clipPath id="clip0">
<rect width="30" height="30" fill="white"/>
</clipPath>
</defs>
</svg>
